<?xml version="1.0" encoding="UTF-8"?>
<svg width="10px" height="10px" viewBox="0 0 10 10" version="1.1" xmlns="http://www.w3.org/2000/svg" xmlns:xlink="http://www.w3.org/1999/xlink">
    <title>Group 3 Copy 2</title>
    <defs>
        <polygon id="path-1" points="0 0 10 0 10 10.0007447 0 10.0007447"></polygon>
    </defs>
    <g id="Page-1" stroke="none" stroke-width="1" fill="none" fill-rule="evenodd">
        <g id="Group-3-Copy-2" transform="translate(0.000000, 0.000000)">
            <mask id="mask-2" fill="white">
                <use xlink:href="#path-1"></use>
            </mask>
            <g id="Clip-2"></g>
            <path d="M6.40393617,4.59148936 C6.31882979,4.68404255 6.11138298,4.88510638 5.77202128,5.18510638 C5.60180851,5.32446809 5.48585106,5.46276596 5.40925532,5.60212766 C5.30925532,5.7712766 5.26244681,5.96489362 5.26244681,6.17234043 L5.26244681,6.35 L4.64542553,6.35 L4.64542553,6.17234043 C4.64542553,5.89468085 4.69968085,5.65531915 4.81457447,5.4393617 C4.92308511,5.2393617 5.09223404,5.03085106 5.33159574,4.81489362 C5.5943617,4.58404255 5.75606383,4.42234043 5.83265957,4.32978723 C5.97946809,4.13617021 6.05712766,3.93617021 6.05712766,3.72021277 C6.05712766,3.41170213 5.96457447,3.17234043 5.7943617,3.00319149 C5.60925532,2.81808511 5.36244681,2.73297872 5.03904255,2.73297872 C4.65287234,2.73297872 4.36776596,2.85638298 4.18265957,3.1106383 C4.01351064,3.32659574 3.92840426,3.62021277 3.92840426,3.99787234 L3.31138298,3.99787234 C3.31882979,3.45744681 3.47308511,3.02553191 3.77414894,2.70212766 C4.08265957,2.36276596 4.51457447,2.19255319 5.06989362,2.19255319 C5.56351064,2.19255319 5.95606383,2.32446809 6.24968085,2.60212766 C6.54223404,2.86382979 6.68904255,3.22659574 6.68904255,3.6893617 C6.68904255,4.03617021 6.58904255,4.33723404 6.40393617,4.59148936 M5.29329787,7.67659574 C5.20074468,7.76170213 5.08478723,7.80744681 4.95393617,7.80744681 C4.82308511,7.80744681 4.71457447,7.76170213 4.62202128,7.67659574 C4.52946809,7.58404255 4.49117021,7.47659574 4.49117021,7.34468085 C4.49117021,7.21382979 4.52946809,7.10638298 4.62202128,7.0212766 C4.71457447,6.9287234 4.82308511,6.89042553 4.95393617,6.89042553 C5.08478723,6.89042553 5.20074468,6.9287234 5.29329787,7.0212766 C5.37840426,7.10638298 5.42414894,7.21382979 5.42414894,7.34468085 C5.42414894,7.48404255 5.37840426,7.59148936 5.29329787,7.67659574 M4.99968085,0 C2.24329787,0 -0.000319148936,2.24255319 -0.000319148936,5 C-0.000319148936,7.75744681 2.24329787,10.0010638 4.99968085,10.0010638 C7.75712766,10.0010638 10.0007447,7.75744681 10.0007447,5 C10.0007447,2.24255319 7.75712766,0 4.99968085,0" id="Fill-1" fill="#000000" mask="url(#mask-2)"></path>
        </g>
    </g>
</svg>