<?xml version="1.0" encoding="UTF-8"?><svg id="Layer_1" xmlns="http://www.w3.org/2000/svg" viewBox="0 0 554.08 116.84"><defs><style>.cls-1{opacity:.05;}</style></defs><g class="cls-1"><g><path d="M519.09,29.18c-8.78,0-8.77-6.01-8.77-6.01V0h-72.89V29.18h64.13c8.78,0,8.77,6.01,8.77,6.01v2.65s.02,6.01-8.77,6.01h-64.13v29.16h64.13c8.78,0,8.77,6.01,8.77,6.01v2.64s.02,6.01-8.77,6.01h-64.13v29.18h72.89v-23.17s-.02-6.01,8.77-6.01h34.99V29.18h-34.99Z"/><path d="M72.91,23.23s-.65,6.01-9.43,6.01h-10.97c-8.78,0-8.77-6.01-8.77-6.01V0H0V116.84H43.75v-23.19s-.02-6.01,8.77-6.01h10.86c8.73,0,9.43,5.93,9.43,6v23.19h43.85v-29.17h-34.87c-8.73,0-8.77-5.93-8.77-6l-.21-8.65h-20.29c-8.78,0-8.77-6.01-8.77-6.01v-17.17s-.02-6.01,8.77-6.01h20.39v-8.59s-.02-6.01,8.77-6.01h34.98V0h-43.74V23.23Z"/><path d="M218.71,37.82V0h-72.9V116.84h43.87V43.83h20.26c8.78,0,8.77,6.01,8.77,6.01V116.84h43.75V43.83h-34.98c-8.78,0-8.77-6.01-8.77-6.01Z"/><path d="M364.52,37.82V0h-72.9V116.84h43.87V43.83h20.26c8.78,0,8.77,6.01,8.77,6.01V116.84h43.75V43.83h-34.98c-8.78,0-8.77-6.01-8.77-6.01Z"/></g></g></svg>