<?xml version="1.0" encoding="UTF-8"?>
<svg width="791px" height="247px" viewBox="0 0 791 247" version="1.1" xmlns="http://www.w3.org/2000/svg" xmlns:xlink="http://www.w3.org/1999/xlink">
    <title>Group 22</title>
    <defs>
        <polygon id="path-1" points="0 0 96.6698 0 96.6698 91.058 0 91.058"></polygon>
    </defs>
    <g id="Page-1" stroke="none" stroke-width="1" fill="none" fill-rule="evenodd">
        <g id="Group-22" transform="translate(0.000000, -0.000000)">
            <path d="M435.0201,69.456 L435.0201,160.334 C435.0201,170.367 443.1551,178.502 453.1881,178.502 C463.2211,178.502 471.3561,170.367 471.3561,160.334 L471.3561,69.456 C471.3561,31.158 440.6021,0 402.8011,0 C364.9981,0 334.2441,31.158 334.2441,69.456 L334.2441,160.334 C334.2441,170.367 342.3781,178.502 352.4121,178.502 C362.4451,178.502 370.5791,170.367 370.5791,160.334 L370.5791,69.456 C370.5791,51.192 385.0341,36.335 402.8011,36.335 C420.5661,36.335 435.0201,51.192 435.0201,69.456" id="Fill-1" fill="#ffffff"></path>
            <path d="M503.5769,68.0419 C493.5439,68.0419 485.4089,76.1769 485.4089,86.2099 L485.4089,177.0879 C485.4089,195.3509 470.9549,210.2079 453.1879,210.2079 C435.4229,210.2079 420.9689,195.3509 420.9689,177.0879 L420.9689,86.2099 C420.9689,76.1769 412.8339,68.0419 402.8009,68.0419 C392.7679,68.0419 384.6329,76.1769 384.6329,86.2099 L384.6329,177.0879 C384.6329,215.3859 415.3869,246.5439 453.1879,246.5439 C490.9909,246.5439 521.7449,215.3859 521.7449,177.0879 L521.7449,86.2099 C521.7449,76.1769 513.6099,68.0419 503.5769,68.0419" id="Fill-3" fill="#ffffff"></path>
            <path d="M552.7878,68.0419 C542.7548,68.0419 534.6198,76.1769 534.6198,86.2099 L534.6198,177.0879 C534.6198,187.1209 542.7548,195.2559 552.7878,195.2559 C562.8208,195.2559 570.9558,187.1209 570.9558,177.0879 L570.9558,86.2099 C570.9558,76.1769 562.8208,68.0419 552.7878,68.0419" id="Fill-5" fill="#ffffff"></path>
            <g id="Group-9" transform="translate(0.000000, 64.869800)">
                <mask id="mask-2" fill="white">
                    <use xlink:href="#path-1"></use>
                </mask>
                <g id="Clip-8"></g>
                <polygon id="Fill-7" fill="#ffffff" mask="url(#mask-2)" points="48.5898 72.949 48.2068 72.949 16.4508 0 -0.0002 0 -0.0002 91.058 13.9008 91.058 13.9008 26.016 14.4108 26.016 42.3408 91.058 54.3278 91.058 82.2588 26.016 82.7688 26.016 82.7688 91.058 96.6698 91.058 96.6698 0 80.2178 0"></polygon>
            </g>
            <path d="M156.9912,129.2739 C156.9912,134.3759 154.8232,138.7119 150.7422,142.1549 C146.6612,145.5979 141.8152,147.3829 136.0762,147.3829 C132.6332,147.3829 129.8272,146.4909 127.7862,144.8329 C125.6182,143.1749 124.5972,141.1339 124.5972,138.5839 C124.5972,130.4209 130.7202,126.0859 143.0912,125.8309 L156.9912,125.4479 L156.9912,129.2739 Z M142.9632,88.2089 C134.8012,88.2089 128.1692,89.6109 123.3232,92.6719 C117.7112,95.9879 114.1402,101.3439 112.7372,108.4859 L126.1292,109.6329 C126.8932,105.9349 128.8062,103.2569 131.8672,101.4709 C134.4182,99.9409 137.8612,99.1759 142.0702,99.1759 C152.0172,99.1759 156.9912,103.7669 156.9912,112.9499 L156.9912,115.6279 L142.1972,116.0099 C132.5052,116.2649 124.8532,118.1779 119.4972,122.0039 C113.6302,125.9579 110.6972,131.6969 110.6972,139.0939 C110.6972,144.5779 112.7372,149.0419 116.9462,152.4849 C120.7722,155.9279 126.1292,157.7129 133.0152,157.7129 C138.8822,157.7129 143.9832,156.5659 148.3192,154.5249 C152.1452,152.6129 155.3342,149.9339 157.8842,146.6189 L157.8842,155.9279 L170.3832,155.9279 L170.3832,113.8419 C170.3832,105.8079 168.3422,99.6859 164.3882,95.4779 C159.7972,90.6309 152.6552,88.2089 142.9632,88.2089 L142.9632,88.2089 Z" id="Fill-10" fill="#ffffff"></path>
            <path d="M232.7432,123.0248 C229.1722,120.7288 223.5602,118.5608 216.0362,116.7758 C209.4042,115.1178 205.0682,113.8418 202.7732,112.8218 C199.2022,111.1648 197.4172,109.2518 197.4172,106.9558 C197.4172,104.4048 198.5642,102.3648 200.9872,101.0888 C203.0282,99.8138 206.0892,99.3028 210.1702,99.3028 C214.7612,99.3028 218.3322,100.0688 220.6282,101.5988 C222.7962,103.0028 224.3262,105.4248 225.3472,108.9968 L238.4822,108.9968 C236.9522,95.0948 227.5142,88.2088 210.4252,88.2088 C202.5172,88.2088 196.0142,89.8658 191.0402,93.3088 C186.0662,96.6258 183.6432,101.3438 183.6432,107.3378 C183.6432,112.9498 186.1932,117.4138 191.2952,120.6018 C194.3552,122.6418 199.8402,124.5548 207.6192,126.3398 C214.3792,127.8708 218.8422,129.1458 220.8832,130.1668 C224.7092,131.9518 226.7492,134.5028 226.7492,137.6908 C226.7492,143.5568 221.3922,146.6188 210.9352,146.6188 C205.8342,146.6188 202.2632,145.7248 199.9682,144.0678 C197.6722,142.2818 196.0142,139.0938 195.2492,134.6298 L181.9852,134.6298 C183.5152,149.9338 193.2082,157.7128 211.3172,157.7128 C230.8302,157.7128 240.6502,150.6998 240.6502,136.7978 C240.6502,130.9318 237.9722,126.3398 232.7432,123.0248" id="Fill-12" fill="#ffffff"></path>
            <path d="M286.0508,88.2084 C281.8418,88.2084 278.1438,88.9734 274.8268,90.7594 C271.1288,92.5444 268.0688,95.4784 265.6458,99.3034 L265.6458,63.0844 L252.1268,63.0844 L252.1268,155.9284 L265.6458,155.9284 L265.6458,118.9434 C265.6458,113.2044 267.0478,108.4854 269.9818,104.7874 C272.7868,101.0894 276.4858,99.3034 281.0758,99.3034 C286.1778,99.3034 290.1318,100.8344 292.6818,104.0214 C294.9778,107.0834 296.2528,111.4194 296.2528,117.2854 L296.2528,155.9284 L309.7718,155.9284 L309.7718,114.9894 C309.7718,106.3174 307.8588,99.6864 304.0318,95.2224 C299.9508,90.5034 293.9568,88.2084 286.0508,88.2084" id="Fill-14" fill="#ffffff"></path>
            <path d="M605.5892,116.5209 C606.3542,110.9089 608.2672,106.7009 611.0722,103.7669 C614.1332,100.7069 618.0872,99.3029 623.1882,99.3029 C633.9012,99.3029 639.8952,105.0419 641.1702,116.5209 L605.5892,116.5209 Z M647.4192,99.1759 C641.8082,91.7789 633.5192,88.2089 622.8062,88.2089 C613.1132,88.2089 605.3332,91.5239 599.7222,98.2839 C593.8562,104.9149 591.0502,113.0769 591.0502,122.8969 C591.0502,133.7379 594.1102,142.2819 600.2332,148.6589 C605.8442,154.6529 613.6232,157.7129 623.3162,157.7129 C632.1152,157.7129 639.3852,155.1629 645.1242,150.1889 C649.7152,146.1079 652.6492,140.8789 654.1792,134.7569 L640.6602,134.7569 C638.8742,138.5829 636.9622,141.5169 634.6662,143.3019 C631.7332,145.4699 627.9062,146.6189 623.1882,146.6189 C617.8312,146.6189 613.6232,144.8329 610.5632,141.5169 C607.5012,138.0739 605.8442,133.0999 605.3332,126.7229 L655.3262,126.7229 C655.1982,114.9899 652.5212,105.8079 647.4192,99.1759 L647.4192,99.1759 Z" id="Fill-16" fill="#ffffff"></path>
            <path d="M713.7357,123.0248 C710.1657,120.7288 704.5527,118.5608 697.0287,116.7758 C690.3967,115.1178 686.0607,113.8418 683.7657,112.8218 C680.1947,111.1648 678.4097,109.2518 678.4097,106.9558 C678.4097,104.4048 679.5567,102.3648 681.9797,101.0888 C684.0207,99.8138 687.0817,99.3028 691.1627,99.3028 C695.7537,99.3028 699.3247,100.0688 701.6207,101.5988 C703.7887,103.0028 705.3187,105.4248 706.3397,108.9968 L719.4747,108.9968 C717.9447,95.0948 708.5067,88.2088 691.4177,88.2088 C683.5097,88.2088 677.0067,89.8658 672.0327,93.3088 C667.0587,96.6258 664.6357,101.3438 664.6357,107.3378 C664.6357,112.9498 667.1857,117.4138 672.2877,120.6018 C675.3477,122.6418 680.8327,124.5548 688.6117,126.3398 C695.3717,127.8708 699.8347,129.1458 701.8757,130.1668 C705.7017,131.9518 707.7417,134.5028 707.7417,137.6908 C707.7417,143.5568 702.3847,146.6188 691.9277,146.6188 C686.8267,146.6188 683.2557,145.7248 680.9607,144.0678 C678.6647,142.2818 677.0067,139.0938 676.2417,134.6298 L662.9777,134.6298 C664.5077,149.9338 674.2007,157.7128 692.3097,157.7128 C711.8227,157.7128 721.6427,150.6998 721.6427,136.7978 C721.6427,130.9318 718.9647,126.3398 713.7357,123.0248" id="Fill-18" fill="#ffffff"></path>
            <path d="M785.0247,95.2221 C780.9437,90.5031 774.9497,88.2081 767.0437,88.2081 C762.8347,88.2081 759.1357,88.9731 755.8197,90.7591 C752.1217,92.5441 749.0607,95.4781 746.6377,99.3031 L746.6377,63.0841 L733.1197,63.0841 L733.1197,155.9281 L746.6377,155.9281 L746.6377,118.9441 C746.6377,113.2041 748.0407,108.4861 750.9737,104.7871 C753.7797,101.0891 757.4777,99.3031 762.0687,99.3031 C767.1707,99.3031 771.1247,100.8341 773.6737,104.0221 C775.9697,107.0831 777.2457,111.4191 777.2457,117.2851 L777.2457,155.9281 L790.7637,155.9281 L790.7637,114.9901 C790.7637,106.3181 788.8507,99.6861 785.0247,95.2221" id="Fill-20" fill="#ffffff"></path>
        </g>
    </g>
</svg>